# xmcd
#
# Track frame offsets: 
#        150
#        23360
#        39111
#        58759
#        70126
#        89087
#        101041
#        116394
#        129753
#        148601
#        160443
#
# Disc length: 2420 seconds
#
# Revision: 0
# Processed by: cddbd v1.5.2PL0 Copyright (c) Steve Scherf et al.
# Submitted via: ExactAudioCopyFreeDBPlugin 1.0
#
DISCID=8b09720b
DTITLE=The Delines - Colfax
DYEAR=2014
DGENRE=Americana
TTITLE0=Calling in
TTITLE1=Colfax avenue
TTITLE2=The oil rigs at night
TTITLE3=Wichita ain't so far away
TTITLE4=I won't slip up
TTITLE5=Sandman's coming
TTITLE6=State line
TTITLE7=Flight 31
TTITLE8=He told her the city was killing him
TTITLE9=I got my shadows
TTITLE10=82nd street
EXTD=
EXTT0=
EXTT1=
EXTT2=
EXTT3=
EXTT4=
EXTT5=
EXTT6=
EXTT7=
EXTT8=
EXTT9=
EXTT10=
PLAYORDER=
